<?xml version="1.0" encoding="UTF-8" standalone="no"?>
<svg
   version="1.1"
   width="319.49329"
   height="233.32091"
   id="svg59"
   viewBox="0 0 319.49328 233.32091"
   sodipodi:docname="56f4f3078334f40102efe6c136cd9de3.svg"
   xmlns:inkscape="http://www.inkscape.org/namespaces/inkscape"
   xmlns:sodipodi="http://sodipodi.sourceforge.net/DTD/sodipodi-0.dtd"
   xmlns="http://www.w3.org/2000/svg"
   xmlns:svg="http://www.w3.org/2000/svg">
  <defs
     id="defs63" />
  <sodipodi:namedview
     id="namedview61"
     pagecolor="#ffffff"
     bordercolor="#666666"
     borderopacity="1.0"
     inkscape:pageshadow="2"
     inkscape:pageopacity="0.0"
     inkscape:pagecheckerboard="0" />
  <g
     id="Layer1000"
     transform="translate(-137.8911,-304.2844)">
    <path
       d="m 137.8911,471.5901 65.5112,66.0152 h 185.9512 l 68.0309,-71.0545 -95.7472,-28.7242 -0.5039,-3.0236 c 2.1056,-9.9904 3.7318,-19.5149 4.8291,-28.5334 0.3326,-2.7349 55.5208,-43.142 57.2209,-45.1758 5.8712,-7.0256 -2.3986,-14.3174 -7.9026,-12.4777 -2.1968,0.734 -47.7136,37.2189 -47.6786,34.9875 0.7884,-49.7885 -19.9889,-79.1926 -73.4919,-79.3192 -70.5033,6.9187 -93.8535,45.8191 -59.968,137.5737 z"
       style="fill:#000c1e;fill-rule:evenodd"
       id="path2" />
    <path
       d="m 239.1815,439.8423 c 5.1825,4.7393 5.9759,1.8423 4.4899,-2.897 -13.004,-19.6069 -14.3322,-41.1481 -14.5685,-58.0788 0.1502,-7.3725 0.2241,-13.0689 0.6643,-20.733 0.5086,-4.3666 6.7427,2.2356 7.3286,5.4816 -0.4023,22.0853 0.1029,42.6469 7.629,63.125 6.395,14.43 14.6504,23.5046 25.7664,31.6414 3.6896,0.8327 4.9292,-2.7396 2.3948,-4.7072 -10.4539,-9.221 -11.7694,-10.6948 -21.6962,-26.9709 -8.7892,-18.5257 -8.2456,-42.5153 -6.9689,-65.4746 4.8903,-16.2748 8.9766,-33.3524 26.7084,-36.7871 8.4504,0.3052 16.9624,1.787 26.2045,17.1337 5.7771,14.3685 7.3501,30.1377 6.0472,46.8658 -1.4831,19.4162 -4.9085,33.0371 -11.1114,50.0919 -2.6623,4.8131 2.5332,2.8029 3.9534,1.465 6.1599,-5.802 8.5808,-13.483 13.2052,-38.4547 3.8221,-17.7727 4.7688,-35.8644 1.5118,-54.4247 -2.415,-13.2787 -9.1379,-24.8337 -31.2438,-30.236 -10.0449,-1.3839 -21.9899,1.5388 -33.8294,7.3472 -17.3553,12.0061 -22.5461,31.4481 -21.431,49.3883 0.5604,23.7735 3.9584,46.3897 14.9457,66.2241 z"
       style="fill:#ffffff;fill-rule:evenodd"
       id="path4" />
    <path
       d="m 240.2337,350.8712 c 3.092,-11.3765 8.2457,-17.8525 14.0295,-23.9423 0.6036,-0.6356 -9.7549,-0.6783 -20.9195,20.137 -3.1042,7.6012 4.9718,11.9999 6.89,3.8053 z"
       style="fill:#000c1e;fill-rule:evenodd"
       id="path6" />
    <path
       d="m 299.0369,466.9488 c 30.2439,20.8579 58.4747,39.6971 88.7187,60.555 1.7642,0.837 3.5288,0.8332 5.2938,-0.0105 5.3952,-3.3 7.0817,-6.5414 2.8206,-9.9491 -31.1569,-18.6653 -61.4325,-37.0779 -92.589,-55.7428 -4.7177,-0.5356 -6.2616,1.9815 -4.2441,5.1474 z"
       style="fill:#ffffff;fill-rule:evenodd"
       id="path8" />
    <path
       d="m 206.0587,520.6767 c 18.1382,-15.8152 36.2861,-31.5777 54.759,-45.7186 1.5566,-1.4135 3.2786,-1.4996 5.166,-0.2583 0.861,0.861 1.1015,1.0999 1.9625,1.9609 0.8344,1.8148 0.5111,4.418 -1.9625,6.5629 -18.6375,12.015 -36.7398,28.3059 -55.7922,42.8773 -1.1282,0.883 -2.3403,1.5578 -4.1328,0.7749 -0.4305,-0.6027 -0.861,-1.2054 -1.2915,-1.8081 -0.3967,-1.4636 0.0338,-2.9273 1.2915,-4.391 z"
       style="fill:#ffffff;fill-rule:evenodd"
       id="path10" />
    <path
       d="m 269.4627,484.1559 c 2.5061,-1.5337 2.1689,-8.2959 -1.365,-12.57 -3.5157,-2.6965 -5.1296,-4.3514 -7.1972,-0.9952 -4.8009,7.7924 -10.6088,-12.2041 5.4601,-9.4583 7.7008,1.9512 12.627,17.4262 10.672,25.2634 -0.8833,8.0485 -20.332,5.0515 -7.5699,-2.2399 z"
       style="fill:#ffffff;fill-rule:evenodd"
       id="path12" />
    <path
       d="m 436.7878,477.1308 c -30.393,-10.7269 -61.1,-21.1398 -91.4929,-31.8668 3.89,-9.5477 6.8904,-19.3073 8.9454,-29.6066 l 7.2467,-2.1314 c -1.5684,10.437 -3.5512,20.1455 -5.2474,27.9446 29.2146,9.3599 59.8527,17.2983 89.2041,26.5211 1.4822,0.4655 3.904,1.8789 2.7547,3.395 -5.436,6.1611 -7.0137,7.5315 -11.4106,5.7441 z m -79.6412,-83.9635 c 0.9627,-15.2095 0.1173,-31.8279 -2.6712,-50.6667 -0.1503,-1.0159 0.2671,-1.7532 1.5008,-0.4157 7.1585,11.4904 8.8855,28.4557 8.1085,45.9482 z"
       style="fill:#ffffff;fill-rule:evenodd"
       id="path14" />
    <path
       d="m 278.5508,466.2482 0.9365,7.1791 90.1913,-73.2804 -0.4697,-4.2278 z"
       style="fill:#ffffff;fill-rule:evenodd"
       id="path16" />
    <path
       d="m 276.7161,458.4456 84.0373,-63.4659 4.6975,-0.9395 -87.1838,68.4027 z"
       style="fill:#ffffff;fill-rule:evenodd"
       id="path18" />
    <path
       d="m 372.0273,391.6914 2.3488,3.2883 31.0032,-24.8966 v -5.1672 z"
       style="fill:#ffffff;fill-rule:evenodd"
       id="path20" />
    <path
       d="m 280.4268,332.9171 c -6.1556,2.8537 -14.0067,4.2344 -22.5478,3.5684 l 1.3222,-4.1357 c 7.8191,0.4033 14.9155,-1.0177 20.3884,-3.7489 z"
       style="fill:#ffffff;fill-rule:evenodd"
       id="path22" />
    <path
       d="m 290.7612,338.345 c -9.8782,3.4237 -22.4772,5.5315 -36.1835,5.6564 l 2.1219,-4.2581 c 12.5477,-0.3208 23.9355,-2.399 32.7181,-5.637 z"
       style="fill:#ffffff;fill-rule:evenodd"
       id="path24" />
    <path
       d="m 295.9284,346.8005 c -12.0583,3.4237 -27.4378,5.5314 -44.1692,5.6563 l 2.5902,-4.2581 c 15.317,-0.3207 29.2181,-2.3989 39.939,-5.6369 z"
       style="fill:#ffffff;fill-rule:evenodd"
       id="path26" />
    <path
       d="m 298.7469,356.1954 c -13.3408,3.4237 -30.3559,5.5314 -48.8667,5.6564 l 2.8657,-4.2581 c 16.9459,-0.3208 32.3255,-2.399 44.1865,-5.637 z"
       style="fill:#ffffff;fill-rule:evenodd"
       id="path28" />
    <path
       d="m 298.7469,364.6508 c -13.7255,3.4237 -31.2313,5.5315 -50.2759,5.6564 l 2.9483,-4.2581 c 17.4346,-0.3208 33.2577,-2.399 45.4608,-5.637 z"
       style="fill:#ffffff;fill-rule:evenodd"
       id="path30" />
    <path
       d="m 299.2167,375.455 c -14.3668,3.4237 -32.6904,5.5314 -52.6247,5.6564 l 3.086,-4.2581 c 18.2492,-0.3208 34.8114,-2.399 47.5846,-5.637 z"
       style="fill:#ffffff;fill-rule:evenodd"
       id="path32" />
    <path
       d="m 298.7469,385.4934 c -13.982,3.8872 -31.8149,6.2803 -51.2154,6.4221 l 3.0034,-4.8345 c 17.7604,-0.3642 33.8792,-2.7237 46.3103,-6.4001 z"
       style="fill:#ffffff;fill-rule:evenodd"
       id="path34" />
    <path
       d="m 296.3982,395.9582 c -12.6996,3.8083 -28.8969,6.1528 -46.518,6.2918 l 2.7279,-4.7364 c 16.1315,-0.3568 30.7718,-2.6685 42.0628,-6.2702 z"
       style="fill:#ffffff;fill-rule:evenodd"
       id="path36" />
    <path
       d="m 297.3377,405.0323 c -12.9561,3.7182 -29.4805,6.0072 -47.4575,6.1428 l 2.783,-4.6242 c 16.4573,-0.3484 31.3933,-2.6053 42.9123,-6.1218 z"
       style="fill:#ffffff;fill-rule:evenodd"
       id="path38" />
    <path
       d="m 294.5192,414.4439 c -11.1607,3.4238 -25.3952,5.5315 -40.881,5.6564 l 2.3973,-4.2581 c 14.1767,-0.3207 27.043,-2.3989 36.9657,-5.6369 z"
       style="fill:#ffffff;fill-rule:evenodd"
       id="path40" />
    <path
       d="m 294.0494,423.3691 c -10.2629,3.4237 -23.3525,5.5315 -37.5928,5.6564 l 2.2046,-4.2581 c 13.0364,-0.3208 24.8677,-2.399 33.9924,-5.637 z"
       style="fill:#ffffff;fill-rule:evenodd"
       id="path42" />
    <path
       d="m 288.9713,433.9319 c -7.0812,2.8484 -16.1128,4.2224 -25.9382,3.549 l 1.5211,-4.1345 c 8.9948,0.41 17.1582,-1.0049 23.454,-3.7314 z"
       style="fill:#ffffff;fill-rule:evenodd"
       id="path44" />
    <path
       d="m 285.594,443.4335 c -4.4921,2.5628 -10.2213,3.5725 -16.4542,2.5029 l 0.9649,-4.0732 c 5.706,0.7728 10.8845,-0.3129 14.8783,-2.7855 z"
       style="fill:#ffffff;fill-rule:evenodd"
       id="path46" />
    <path
       d="m 289.8192,486.1493 c -2.5725,1.2789 -5.8534,1.4296 -9.4228,0.1727 l 0.5526,-2.5834 c 3.2676,1.0154 6.2332,0.7658 8.5203,-0.4985 z"
       style="fill:#ffffff;fill-rule:evenodd"
       id="path48" />
    <path
       d="m 289.5875,477.485 c -1.8977,1.2307 -4.3181,1.7802 -6.9512,1.3989 l 0.4076,-1.8553 c 2.4105,0.2559 4.5983,-0.3189 6.2855,-1.5007 z"
       style="fill:#ffffff;fill-rule:evenodd"
       id="path50" />
    <path
       d="m 293.2176,491.284 c 1.5755,0.7808 3.2599,0.7107 4.9076,-0.8648 1.1961,-5.312 -2.0782,-8.8116 1.178,-13.5581 1.2075,-1.7608 0.8821,-5.3069 -0.8273,-6.8436 -1.0813,0.0515 -2.5808,-0.3558 -2.6323,0.7255 0.3786,1.7532 1.0345,4.3054 -1.0598,5.7653 -1.2467,0.8694 -0.2102,5.7416 -0.2747,11.0076 -0.0617,1.9959 -2.656,-0.2997 -1.2915,3.7681 z"
       style="fill:#ffffff;fill-rule:evenodd"
       id="path52" />
    <path
       d="m 213.5033,528.8975 39.6558,-33.2119 2.5611,-1.2413 h 76.5927 l 2.5868,0.693 46.3888,33.1706 0.1076,2.0102 -167.4791,0.2617 z"
       style="fill:#ffffff;fill-rule:evenodd"
       id="path54" />
    <path
       d="m 259.2046,498.759 c -1.5687,1.8925 -3.1189,3.7858 -4.6776,5.6716 -1.5641,1.8929 -3.1371,3.779 -4.6776,5.6686 2.3318,-2.104 4.7776,-4.2729 7.2922,-6.5528 1.7393,-1.5768 3.4056,-3.1908 5.0731,-4.7874 2.0069,0 4.0133,0 6.0346,0 -1.8938,2.1039 -3.826,4.2256 -5.8227,6.3084 -2.0305,2.1179 -4.1264,4.2016 -6.246,6.3022 -0.9893,2.7859 -1.9258,5.5588 -2.6994,8.3549 -0.7665,2.77 -1.3565,5.5686 -1.8938,8.3517 -3.3916,0 -6.7689,0 -10.1322,0 0.5085,-1.6389 1.0475,-3.2828 1.6531,-4.917 0.6095,-1.6435 1.2772,-3.276 1.9647,-4.9199 0.2022,-0.4836 0.9095,-2.0085 2.2044,-4.5548 0.2169,-0.4271 0.4381,-0.8449 0.6643,-1.2674 -2.1339,2.6108 -4.264,5.2284 -6.3878,7.8325 -2.1297,2.6112 -4.2535,5.2187 -6.3591,7.8266 -3.2506,0 -6.5009,0 -9.7511,0 4.6211,-4.8836 9.2565,-9.7736 13.8775,-14.6572 4.6211,-4.8835 9.2283,-9.773 13.8776,-14.66 1.9925,0 3.999,0 6.0058,0 z m -4.9743,29.3172 c 2.7839,-4.8836 5.5682,-9.7736 8.352,-14.6572 2.7839,-4.8831 5.5539,-9.773 8.3521,-14.66 4.1403,0 8.2811,0 12.4358,0 -0.5795,1.9047 -1.1729,3.8095 -1.7524,5.7108 -2.374,0 -4.7481,0 -7.1226,0 -0.6638,1.5181 -1.3282,3.0363 -1.9925,4.5514 2.4733,0 4.9461,0 7.4337,0 -0.6078,1.8714 -1.1733,3.7399 -1.7524,5.6083 -2.7134,0 -5.4411,0 -8.1402,0 -0.5794,1.2856 -1.1446,2.572 -1.7097,3.8576 -0.5651,1.2856 -1.1307,2.5716 -1.6958,3.8571 3.2924,0 6.5853,0 9.8921,0 -0.5795,1.9107 -1.159,3.8213 -1.7241,5.732 -6.8542,0 -13.7079,0 -20.576,0 z m 47.0308,-29.3172 c 0.3532,4.887 0.7213,9.7777 1.0885,14.66 0.3676,4.8845 0.7487,9.7736 1.1019,14.6572 -3.4621,0 -6.9385,0 -10.4011,0 -0.6639,-2.7075 -1.2855,-5.4184 -1.7945,-8.1284 -0.5082,-2.7049 -0.9045,-5.4209 -1.2578,-8.1313 -0.0709,1.1045 -0.1337,2.366 -0.1413,3.8031 -0.006,1.2308 -0.0718,2.4146 -0.2119,3.5432 -0.1845,1.4877 -0.3609,2.9725 -0.5373,4.4581 -0.1764,1.484 -0.3532,2.97 -0.5368,4.4553 -3.2646,0 -6.5431,0 -9.8077,0 1.2155,-4.8836 2.431,-9.774 3.6461,-14.6572 1.2151,-4.8835 2.4167,-9.773 3.6322,-14.66 2.1478,0 4.2961,0 6.4439,0 0.2967,2.415 0.609,4.8346 1.0459,7.2412 0.4389,2.4167 0.9893,4.8262 1.5544,7.2378 -0.0139,-1.0927 -0.0891,-2.2145 -0.1553,-3.3714 -0.103,-1.8038 -0.1115,-3.0886 -0.0709,-3.8512 0.1287,-2.4184 0.2684,-4.8355 0.3815,-7.2564 2.0069,0 3.9994,0 6.0202,0 z m 7.7021,29.3172 c -0.7066,-4.8836 -1.4414,-9.7719 -2.1622,-14.6572 -0.7201,-4.8814 -1.4413,-9.773 -2.1483,-14.66 2.3462,0 4.7063,-0.008 7.0804,0 2.3597,0.007 4.0285,0.2786 5.0592,0.7095 1.6405,0.6858 3.1109,1.7312 4.3243,3.2207 0.9767,1.1994 2.242,3.4545 3.8297,6.779 0.6306,1.3202 1.2464,2.6526 1.8655,3.969 0.6242,1.3269 1.2607,2.6429 1.8794,3.966 1.7127,3.6626 2.3943,5.9253 2.2044,6.8247 -0.2764,1.3087 -1.129,2.2917 -2.7129,2.9096 -1.6098,0.628 -3.9711,0.9387 -7.0521,0.9387 -4.056,0 -8.1259,0 -12.1674,0 z m 8.2245,-5.6083 c 0.6221,0 1.2577,0 1.8938,0 0.8057,0 1.3953,-0.1389 1.7806,-0.3891 0.3351,-0.2174 0.5149,-0.4833 0.509,-0.8121 -0.008,-0.4617 -0.1443,-1.107 -0.4381,-1.9587 -0.6812,-1.9727 -1.3569,-3.9513 -2.0351,-5.9252 -0.6783,-1.974 -1.3396,-3.9602 -2.0352,-5.9308 -0.4625,-1.3104 -0.907,-2.1533 -1.2999,-2.5568 -0.4967,-0.5102 -1.2012,-0.7694 -2.1056,-0.7694 -0.4381,0 -0.8905,0 -1.3286,0 0.8339,3.0574 1.6886,6.1164 2.5298,9.1725 0.8398,3.0523 1.6814,6.1152 2.5293,9.1696 z m 17.3967,-1.3489 c -1.3008,-2.4445 -2.6007,-4.8899 -3.9006,-7.3349 -1.3,-2.4441 -2.6143,-4.8823 -3.9146,-7.3344 -1.7232,-3.249 -1.8853,-5.5087 -0.6639,-6.8335 0.7711,-0.8365 2.063,-1.2919 3.9707,-1.2919 2.5298,0 4.9773,0.7006 7.3627,2.0313 2.4615,1.373 4.9106,3.3933 7.2214,6.0941 2.1541,2.5175 4.3205,5.0262 6.4726,7.5307 2.158,2.5116 4.3096,5.0203 6.4583,7.5277 1.9351,2.258 2.2592,4.0315 0.8762,5.2639 -1.3164,1.1729 -3.8441,1.7355 -7.5181,1.7355 -4.3387,0 -8.1448,-0.8243 -11.3338,-2.5142 -2.3078,-1.2227 -3.9581,-2.8581 -5.0309,-4.8743 z m 12.1674,-2.125 c -1.4696,-2.0158 -2.9489,-4.026 -4.4231,-6.0489 -1.4646,-2.0094 -2.9359,-4.0247 -4.4092,-6.0485 -1.0142,-1.3928 -1.8119,-2.3052 -2.4024,-2.7286 -0.5537,-0.3971 -1.1307,-0.6005 -1.7524,-0.6005 -0.5512,0 -0.8711,0.1675 -0.9327,0.5128 -0.0793,0.4452 0.3588,1.3915 1.2999,2.8163 1.3481,2.0398 2.6999,4.0716 4.0421,6.1029 1.3421,2.031 2.6943,4.0691 4.0272,6.097 0.8289,1.2615 1.5093,2.1137 2.0069,2.5353 0.8867,0.7521 1.8937,1.1231 2.9678,1.1231 0.9467,0 1.3418,-0.306 1.2578,-0.9239 -0.057,-0.4174 -0.6082,-1.3641 -1.6819,-2.837 z"
       style="fill:#000c1e;fill-rule:evenodd"
       id="path56" />
  </g>
</svg>
